# xmcd CD database file
#
# Track frame offsets:
#	150
#	5587
#	13187
#	19970
#	25635
#	30547
#	62932
#	66297
#	72120
#	78317
#	109532
#	123552
#	133510
#	145277
#	151485
#	177480
#	180567
#	185225
#
# Disc length: 2680 seconds
#
# Revision: 0
# Processed by: cddbd v1.5PL3 Copyright (c) Steve Scherf et al.
# Submitted via: CDex 1.51
#
DISCID=fb0a7612
DTITLE=Helme Heine - Freunde
DYEAR=1900
DGENRE=Child
TTITLE0=Prolog
TTITLE1=Mullewapp
TTITLE2=Superstars
TTITLE3=Spritztour
TTITLE4=Schützenfest
TTITLE5=Freunde
TTITLE6=Das Bad
TTITLE7=Der Besuch
TTITLE8=Indianer
TTITLE9=Der Wecker
TTITLE10=Mullewapp II
TTITLE11=Der schöne Franz
TTITLE12=Verkleiden
TTITLE13=Nachtleben
TTITLE14=Der Rennwagen
TTITLE15=Das Paradies
TTITLE16=Das Konzert
TTITLE17=Mullewapp III
EXTD=
EXTT0=
EXTT1=
EXTT2=
EXTT3=
EXTT4=
EXTT5=
EXTT6=
EXTT7=
EXTT8=
EXTT9=
EXTT10=
EXTT11=
EXTT12=
EXTT13=
EXTT14=
EXTT15=
EXTT16=
EXTT17=
PLAYORDER=
